PathFileType	4	(X/Y/Z)	./resultDataOpenSim/trcMotMarkerGrf/sub09/qtm-12-04.trc
DataRate	CameraRate	NumFrames	NumMarkers	Units	OrigDataRate	OrigDataStartFrame	OrigNumFrames
250.000000	250.000000	6	24	m	250.000000	361	481
Frame#	Time	L.Toe.Tip			R.Toe.Tip			L.Ankle.Lat			R.Ankle.Lat			L.Ankle.Med			R.Ankle.Med			L.Heel			R.Heel			L.Knee.Lat			R.Knee.Lat			L.Knee.Med			R.Knee.Med			L.Thigh.Upper			R.Thigh.Upper			L.ASIS			R.ASIS			V.Sacral			L.Acromium			R.Acromium			C7			L.Elbow			R.Elbow			L.Wrist.Lat			R.Wrist.Lat
		X1	Y1	Z1	X2	Y2	Z2	X3	Y3	Z3	X4	Y4	Z4	X5	Y5	Z5	X6	Y6	Z6	X7	Y7	Z7	X8	Y8	Z8	X9	Y9	Z9	X10	Y10	Z10	X11	Y11	Z11	X12	Y12	Z12	X13	Y13	Z13	X14	Y14	Z14	X15	Y15	Z15	X16	Y16	Z16	X17	Y17	Z17	X18	Y18	Z18	X19	Y19	Z19	X20	Y20	Z20	X21	Y21	Z21	X22	Y22	Z22	X23	Y23	Z23	X24	Y24	Z24

361	1.44	0.96293179	0.11751827	-0.096336773	1.1093017	0.039220845	0.020653392	0.87865975	0.24614121	-0.12288551	0.96274508	0.059656574	0.061946457	0.90759067	0.23732661	-0.028429492	0.97320981	0.1001564	-0.029024368	0.79986104	0.26085296	-0.073624307	0.89186996	0.044251945	0.015209485	1.1806243	0.519287	-0.14301114	1.0884103	0.49882855	0.12771131	1.1880529	0.50888396	-0.01684974	1.0616097	0.49318859	0.0024548275	1.0013017	0.89181909	-0.16834949	1.0270832	0.90261377	0.20240636	1.0738028	0.98079059	-0.11501288	1.1049048	0.98798387	0.12061371	0.92149487	1.0401203	0.019460339	1.0568731	1.4324393	-0.1734	1.0820489	1.4515147	0.15687229	1.0013915	1.490302	-0.00082121118	0.88866359	1.1053097	-0.21135529	0.95669355	1.1127782	0.26841201	1.0033732	0.86572108	-0.24887668	1.1260122	0.89413955	0.24812926
362	1.444	0.98137032	0.11556282	-0.097235793	1.1093641	0.039186565	0.020735723	0.89363904	0.24171997	-0.12354134	0.9629366	0.060070235	0.06200119	0.92325199	0.23331125	-0.029195681	0.97368511	0.10064043	-0.028783027	0.81434246	0.25424214	-0.074416674	0.89218712	0.044729651	0.015336597	1.1899667	0.52167354	-0.14253458	1.0896663	0.49882447	0.12793332	1.1962513	0.51150631	-0.016786279	1.0631937	0.49343381	0.0026953136	1.0076646	0.89292164	-0.16887899	1.0315581	0.90322045	0.20216744	1.0794513	0.98182884	-0.11508421	1.1098656	0.98860524	0.12061283	0.92689449	1.0408996	0.01888804	1.0619213	1.4332502	-0.17359969	1.0873965	1.4523708	0.15670371	1.0065745	1.491077	-0.00093200375	0.89320812	1.1064508	-0.2114862	0.96237594	1.1134077	0.26838693	1.0069994	0.86657585	-0.24943385	1.1325665	0.89540688	0.24761348
363	1.448	0.9999253	0.11357321	-0.098041998	1.1094443	0.039157669	0.020804082	0.90877757	0.23715753	-0.12420826	0.96311144	0.060501074	0.062060426	0.9387932	0.22922204	-0.029923099	0.9740052	0.10111635	-0.028583125	0.82905002	0.24746862	-0.075298178	0.89239492	0.045263913	0.015364697	1.1990224	0.52396828	-0.14212318	1.0910511	0.49887936	0.12812848	1.204844	0.51403408	-0.016541763	1.0649818	0.49360921	0.0030592607	1.0138044	0.89395739	-0.16932383	1.0360443	0.90381658	0.20190863	1.0851091	0.98280385	-0.11517992	1.1148178	0.98919342	0.12060073	0.93229406	1.0416201	0.018288869	1.066987	1.4340326	-0.17382659	1.0927227	1.4531305	0.15652927	1.0117569	1.4918017	-0.001047688	0.89777745	1.1075311	-0.21162532	0.9680416	1.113969	0.26836093	1.0106806	0.86736525	-0.24996979	1.1390723	0.89661128	0.24710071
364	1.452	1.0185623	0.11152484	-0.09877576	1.1095757	0.039148702	0.020840708	0.92407854	0.2324541	-0.1248735	0.96327214	0.060931558	0.062122742	0.95419786	0.2250509	-0.030587138	0.97407599	0.10154364	-0.028492861	0.84400456	0.24057582	-0.07627219	0.89250479	0.04586017	0.015320671	1.2078406	0.52614468	-0.14175817	1.0925497	0.49900005	0.12831328	1.2138243	0.51646579	-0.016158569	1.0669614	0.49368796	0.0034499093	1.0197066	0.89491555	-0.16968993	1.0404933	0.90438571	0.20165829	1.0907773	0.98371774	-0.11529689	1.1197569	0.98974774	0.1205856	0.93762713	1.0422724	0.017701129	1.0720579	1.4347698	-0.17404996	1.0980276	1.4538199	0.15635852	1.0169401	1.4924774	-0.0011641255	0.90237617	1.1085533	-0.21176692	0.97369234	1.1144714	0.26833831	1.0144165	0.86808912	-0.25048436	1.1455081	0.89774668	0.24659329
365	1.456	1.0372592	0.10940886	-0.099436569	1.1097439	0.039145829	0.020843995	0.9395378	0.22761445	-0.12552451	0.96341234	0.061358763	0.062183923	0.96959683	0.22079506	-0.031196084	0.97397933	0.10194274	-0.028481181	0.85917119	0.23360138	-0.077279321	0.89257821	0.046493848	0.01524109	1.2164603	0.52817992	-0.14142339	1.0941225	0.49916221	0.12848709	1.2228892	0.51878435	-0.01575853	1.0689891	0.49370526	0.0037726665	1.0254473	0.89578977	-0.17001544	1.0449104	0.90492784	0.20141487	1.0964474	0.98456846	-0.11542199	1.1246848	0.99026492	0.12056836	0.94289669	1.042861	0.017128212	1.0771252	1.4354444	-0.17424053	1.1033092	1.4544584	0.15620177	1.0221228	1.4931065	-0.0012771215	0.90701416	1.1095163	-0.21190373	0.97933381	1.1149244	0.26832378	1.0181971	0.86875484	-0.25098008	1.1518768	0.89881133	0.24609267
366	1.46	1.0559763	0.10724501	-0.10000089	1.109881	0.039130262	0.02083997	0.9551543	0.22265016	-0.12615429	0.96351669	0.061793656	0.062239339	0.98509644	0.2164627	-0.031766179	0.97394933	0.10236849	-0.028475123	0.87454565	0.22654748	-0.078275785	0.89266616	0.047159611	0.015166049	1.2249111	0.53006345	-0.14110492	1.0957339	0.49932846	0.12864442	1.2316994	0.52096157	-0.015425093	1.0709618	0.49370418	0.0040124091	1.0311192	0.89658099	-0.17033436	1.0493243	0.90544251	0.20117003	1.1021097	0.98535759	-0.11554402	1.1296108	0.99074643	0.12054517	0.94812878	1.043392	0.016560223	1.0821915	1.4360519	-0.17439527	1.1085762	1.4550489	0.15605869	1.0273028	1.4936901	-0.0013878301	0.91169479	1.1104153	-0.21203439	0.98497672	1.1153303	0.26832083	1.0220167	0.86936836	-0.25146088	1.158193	0.89980647	0.24559845
